<?xml version="1.0" encoding="iso-8859-1"?>
<!-- Generator: Adobe Illustrator 19.0.0, SVG Export Plug-In . SVG Version: 6.00 Build 0)  -->
<svg version="1.1" id="Capa_1" xmlns="http://www.w3.org/2000/svg" xmlns:xlink="http://www.w3.org/1999/xlink" x="0px" y="0px"
	 viewBox="0 0 429.999 429.999" style="enable-background:new 0 0 429.999 429.999;" xml:space="preserve">
<g id="XMLID_12_">
	<path id="XMLID_928_" d="M429.999,192.816h-29.036L214.999,17.183l-105,99.167V62.816H20v130H0v30h20v190h390v-190h19.999V192.816z
		 M160.112,192.816l54.887-51.838l54.887,51.838H160.112z M313.578,192.816l-98.579-93.103l-98.579,93.103H79.999h-7.271
		L214.999,58.448l142.271,134.368H313.578z M199.999,222.816v80H50v-80H199.999z M50,332.816h30v50H50V332.816z M109.999,332.816h30
		v50h-30V332.816z M169.999,332.816h30v50h-30V332.816z M229.999,222.816h150v160h-150V222.816z M79.999,92.816v51.867l-30,28.334
		V92.816H79.999z"/>
	<path id="XMLID_938_" d="M260,342.816h90v-90h-90V342.816z M290,282.816h30v30h-30V282.816z"/>
</g>
<g>
</g>
<g>
</g>
<g>
</g>
<g>
</g>
<g>
</g>
<g>
</g>
<g>
</g>
<g>
</g>
<g>
</g>
<g>
</g>
<g>
</g>
<g>
</g>
<g>
</g>
<g>
</g>
<g>
</g>
</svg>
